<!-- Generator: Adobe Illustrator 19.2.0, SVG Export Plug-In  -->
<svg version="1.1"
	 xmlns="http://www.w3.org/2000/svg" xmlns:xlink="http://www.w3.org/1999/xlink" xmlns:a="http://ns.adobe.com/AdobeSVGViewerExtensions/3.0/"
	 x="0px" y="0px" width="140.673px" height="237.969px" viewBox="0 0 140.673 237.969"
	 style="enable-background:new 0 0 140.673 237.969;" xml:space="preserve">
<style type="text/css">
	.st0{fill:none;stroke:#000000;stroke-width:4;}
</style>
<defs>
</defs>
<g>
	<path d="M14.49,64.133V26.332h9.774c10.422,0,13.824,9.072,13.824,18.9s-3.402,18.9-13.824,18.9H14.49z M24.264,57.383
		c4.806,0,6.804-5.346,6.804-12.15s-1.998-12.15-6.804-12.15H21.51v24.3H24.264z"/>
	<path d="M44.891,64.133V26.332h20.088v6.75H51.912v9.666h11.016v6.75H51.912v7.884h13.067v6.75H44.891z"/>
	<path d="M75.887,53.17c0.918,2.862,3.294,4.752,5.994,4.752c2.808,0,4.968-1.296,4.968-4.212c0-6.156-15.606-6.102-15.606-17.604
		c0-5.832,4.267-10.314,10.422-10.314c6.156,0,9.667,3.402,11.503,8.154l-6.103,3.78c-0.918-3.132-2.538-5.184-5.4-5.184
		c-1.998,0-3.401,1.242-3.401,3.348c0,6.696,15.605,5.346,15.605,17.82c0,6.696-4.968,10.962-11.987,10.962
		c-5.832,0-10.099-3.024-11.988-7.452L75.887,53.17z"/>
</g>
<g>
	<path d="M27.505,115.109h-7.992l-8.694-37.801h7.344l4.807,23.977c0.27,1.404,0.485,3.348,0.485,3.348h0.108
		c0,0,0.216-1.944,0.486-3.348L28.8,77.308h7.397L27.505,115.109z"/>
	<path d="M41.165,115.109V77.308h20.089v6.75H48.185v9.666h11.017v6.75H48.185v7.884h13.068v6.75H41.165z"/>
	<path d="M85.175,115.109l-4.698-11.664c-0.54,0.054-1.08,0.054-1.62,0.054h-2.43v11.61h-7.021V77.308h10.477
		c8.586,0,12.149,6.372,12.149,12.96c0,4.158-1.62,8.316-5.076,10.854l5.671,13.986H85.175z M79.073,96.749
		c3.996,0,5.994-2.7,5.994-6.372c0-3.834-2.052-6.372-6.048-6.372h-2.592v12.744H79.073z"/>
</g>
<g>
	<path d="M38.196,147.67c0,10.908-3.51,18.954-12.582,18.954c-10.422,0-13.284-9.612-13.284-19.44s2.862-19.44,13.284-19.44
		c6.156,0,9.666,3.402,11.502,8.154l-6.102,3.78c-0.918-3.132-2.538-5.185-5.4-5.185c-4.806,0-6.264,5.887-6.264,12.69
		c0,6.805,1.458,12.69,6.264,12.69c4.158,0,5.076-4.32,5.076-7.776h-4.428v-6.75h11.934V147.67z"/>
	<path d="M42.515,147.184c0-10.368,3.132-19.44,13.015-19.44c9.882,0,13.014,9.072,13.014,19.44s-3.132,19.44-13.014,19.44
		C45.647,166.625,42.515,157.552,42.515,147.184z M61.524,147.184c0-7.884-1.675-12.69-5.994-12.69c-4.32,0-5.994,4.807-5.994,12.69
		s1.728,12.69,5.994,12.69C59.796,159.875,61.524,155.068,61.524,147.184z"/>
	<path d="M91.925,166.085l-9.666-21.223c-0.433-1.025-0.918-2.538-0.918-2.538h-0.108c0,0,0.054,1.62,0.054,2.809v20.952h-6.264
		v-37.801h6.696l9.504,20.683c0.432,0.918,0.918,2.538,0.918,2.538h0.108c0-0.271-0.055-1.836-0.055-2.754v-20.467h6.265v37.801
		H91.925z"/>
</g>
<g>
	<path d="M11.303,217.061v-0.108l12.475-28.458c0.486-1.134,1.188-2.43,1.188-2.43l-0.108-0.055H13.356v-6.75h22.14v0.108
		l-12.474,28.296c-0.486,1.135-1.296,2.593-1.296,2.593l0.107,0.054h11.881v6.75H11.303z"/>
	<path d="M55.692,217.061l-1.242-5.94h-8.748l-1.188,5.94H37.17l8.964-37.801h7.992l8.964,37.801H55.692z M50.723,192.545
		c-0.216-1.025-0.54-3.24-0.54-3.24h-0.107c0,0-0.324,2.215-0.54,3.24l-2.538,12.366h6.21L50.723,192.545z"/>
	<path d="M67.949,217.061V179.26h9.774c10.423,0,13.824,9.072,13.824,18.9s-3.401,18.9-13.824,18.9H67.949z M77.723,210.311
		c4.807,0,6.805-5.346,6.805-12.15c0-6.804-1.998-12.15-6.805-12.15h-2.754v24.301H77.723z"/>
	<path d="M112.229,217.061l-1.242-5.94h-8.748l-1.188,5.94h-7.345l8.964-37.801h7.992l8.965,37.801H112.229z M107.261,192.545
		c-0.216-1.025-0.54-3.24-0.54-3.24h-0.108c0,0-0.324,2.215-0.54,3.24l-2.538,12.366h6.21L107.261,192.545z"/>
</g>
<rect x="2" y="2" class="st0" width="136.673" height="233.969"/>
</svg>